Coordinates
version=1
nRows=5
nColumns=40
inDegrees=yes

Units are S.I. units (second, meters, Newtons, ...)
If the header above contains a line with 'inDegrees', this indicates whether rotational values are in degrees (yes) or radians (no).

endheader
time	pelvis_tilt	pelvis_list	pelvis_rotation	pelvis_tx	pelvis_ty	pelvis_tz	hip_flexion_r	hip_adduction_r	hip_rotation_r	knee_angle_r	knee_angle_r_beta	ankle_angle_r	subtalar_angle_r	mtp_angle_r	hip_flexion_l	hip_adduction_l	hip_rotation_l	knee_angle_l	knee_angle_l_beta	ankle_angle_l	subtalar_angle_l	mtp_angle_l	lumbar_extension	lumbar_bending	lumbar_rotation	arm_flex_r	arm_add_r	arm_rot_r	elbow_flex_r	pro_sup_r	wrist_flex_r	wrist_dev_r	arm_flex_l	arm_add_l	arm_rot_l	elbow_flex_l	pro_sup_l	wrist_flex_l	wrist_dev_l
      6.00000000	     87.46766545	     43.74263427	     87.28666649	      0.41908226	      0.61556084	      0.70348852	     95.85480639	     -8.08843534	     -1.11747202	     52.68026894	      0.91944414	      6.57026345	      0.00000000	      0.00000000	     94.54813088	    -20.68057110	     -4.47227009	     53.67594795	      0.93682202	      8.79105737	      0.00000000	      0.00000000	    -46.71486253	    -10.26605914	      0.20011539	     76.32192414	     -4.69502536	     23.43733893	     12.14391218	     34.27073650	      0.00000000	      0.00000000	     77.74173201	     -0.29135190	    -24.10131913	     18.22602016	     34.43439753	      0.00000000	      0.00000000
      6.00500000	     87.53866197	     43.85655183	     87.30046086	      0.41933298	      0.61545700	      0.70189972	     96.05260337	     -8.16320659	     -1.07920388	     53.18518812	      0.92825665	      6.78901360	      0.00000000	      0.00000000	     94.77538324	    -20.64768364	     -4.28586714	     54.12625355	      0.94468134	      8.95936701	      0.00000000	      0.00000000	    -46.53894169	    -10.12063038	      0.22829468	     76.11689418	     -4.63987714	     23.28611173	     12.16538647	     34.28411457	      0.00000000	      0.00000000	     78.34437780	      0.00182843	    -27.21621066	     17.28815674	     34.26338125	      0.00000000	      0.00000000
      6.01000000	     87.54702546	     44.00256438	     87.30928438	      0.41963854	      0.61550621	      0.70043136	     96.21395218	     -8.16673711	     -0.97050928	     53.64323955	      0.93625115	      6.96281561	      0.00000000	      0.00000000	     94.93946622	    -20.65846239	     -4.12784797	     54.55958904	      0.95224447	      9.13609551	      0.00000000	      0.00000000	    -46.41246985	    -10.09052758	      0.23548842	     75.94378317	     -4.65565324	     23.70449903	     12.12526126	     34.52177723	      0.00000000	      0.00000000	     77.95605718	     -0.02317839	    -27.01860116	     17.56455932	     34.50773225	      0.00000000	      0.00000000
      6.01500000	     87.54258044	     44.23345996	     87.39457194	      0.41983251	      0.61540729	      0.69923246	     96.26694881	     -8.26225177	     -0.91514412	     54.07378489	      0.94376559	      7.19549461	      0.00000000	      0.00000000	     94.97625111	    -20.63007926	     -4.08769976	     54.93505711	      0.95879762	      9.27083593	      0.00000000	      0.00000000	    -46.42465164	    -10.06394637	      0.25322262	     75.58282978	     -4.94058119	     24.06826811	     12.56902926	     35.14242658	      0.00000000	      0.00000000	     77.52083314	     -0.13758898	    -25.47570409	     17.75942334	     35.21221669	      0.00000000	      0.00000000
      6.02000000	     87.57135427	     44.37220164	     87.36810058	      0.42009872	      0.61541682	      0.69765951	     96.43915629	     -8.23255229	     -0.77028099	     54.54795456	      0.95204141	      7.36705170	      0.00000000	      0.00000000	     95.18963670	    -20.69963051	     -3.96869873	     55.45056665	      0.96779496	      9.45161377	      0.00000000	      0.00000000	    -46.26616453	     -9.99276873	      0.25308719	     75.56474957	     -4.71088768	     23.89503608	     12.19372636	     35.13972332	      0.00000000	      0.00000000	     77.49370313	     -0.03993043	    -26.96099605	     17.66967748	     35.22578074	      0.00000000	      0.00000000
